PathFileType	4	(X/Y/Z)	s10c0202.trc
DataRate	CameraRate	NumFrames	NumMarkers	Units	OrigDataRate	OrigDataStartFrame	OrigNumFrames
200	200	4	50	mm	200	1250	2000
Frame#	Time	racr			lacr			c7			jug			rlel			rdr			llel			ldr			s2			lic			ric			lasi			rasi			rpsi			lpsi			rgt			lgt			rth1			rth2			rth3			rth4			rlfc			rmfc			rsh1			rsh2			rsh3			rsh4			rlmal			rmmal			rcal			rtoe			rmt5			lth1			lth2			lth4			lth3			llfc			lmfc			llmal			lmmal			lcal			lmt5			lsh1			lsh2			lsh3			lsh4			ltoe			SBIKE			LBIKE			RBIKE			
		X1	Y1	Z1	X2	Y2	Z2	X3	Y3	Z3	X4	Y4	Z4	X5	Y5	Z5	X6	Y6	Z6	X7	Y7	Z7	X8	Y8	Z8	X9	Y9	Z9	X10	Y10	Z10	X11	Y11	Z11	X12	Y12	Z12	X13	Y13	Z13	X14	Y14	Z14	X15	Y15	Z15	X16	Y16	Z16	X17	Y17	Z17	X18	Y18	Z18	X19	Y19	Z19	X20	Y20	Z20	X21	Y21	Z21	X22	Y22	Z22	X23	Y23	Z23	X24	Y24	Z24	X25	Y25	Z25	X26	Y26	Z26	X27	Y27	Z27	X28	Y28	Z28	X29	Y29	Z29	X30	Y30	Z30	X31	Y31	Z31	X32	Y32	Z32	X33	Y33	Z33	X34	Y34	Z34	X35	Y35	Z35	X36	Y36	Z36	X37	Y37	Z37	X38	Y38	Z38	X39	Y39	Z39	X40	Y40	Z40	X41	Y41	Z41	X42	Y42	Z42	X43	Y43	Z43	X44	Y44	Z44	X45	Y45	Z45	X46	Y46	Z46	X47	Y47	Z47	X48	Y48	Z48	X49	Y49	Z49	X50	Y50	Z50	
1250	6.2500	444.880687	1248.349007	-126.023066	384.246938	1283.379444	-423.112833	377.943635	1318.034100	-267.331629	375.196541	1174.628031	-283.910493	424.381940	1022.320864	23.000786	590.929604	907.531538	-37.765904	413.651475	1021.376578	-515.625700	599.511215	908.169044	-436.355530	-117.126102	1094.406196	-194.015865	10.378579	1143.374273	-360.410504	80.479004	1103.554335	-80.100459	61.556199	1050.031060	-348.460320	82.196475	1029.830409	-90.588757	-69.261085	1150.151632	-136.610013	-83.080790	1167.107520	-242.930523	-27.253147	995.671703	-21.593639	-51.486641	1001.965700	-397.954942	63.429852	873.661939	-7.919343	137.036208	827.419180	-26.836304	176.180589	751.999181	-37.728980	162.876257	854.087361	-32.201671	243.372034	666.392551	-58.852585	228.545433	665.553614	-176.068192	153.227991	596.530588	-27.561544	110.012848	520.414901	-44.147890	37.144198	474.581242	-45.949165	131.895084	504.242319	-71.773111	-40.423999	405.053725	-61.269363	-11.876645	400.428217	-139.957890	-92.374954	416.394667	-109.107219	87.743314	253.093607	-99.456115	5.286335	283.617976	-39.945415	63.404745	924.458933	-420.319966	148.794745	910.746857	-413.101019	162.934565	942.081617	-400.282867	217.925417	854.780767	-417.732792	321.013077	792.213877	-401.410081	341.642948	779.138487	-285.544560	201.446053	434.381500	-383.916323	219.738839	439.951470	-304.189302	148.658721	397.627029	-338.830366	320.207717	354.740345	-407.878357	261.072661	680.900783	-421.164269	268.281278	593.813661	-407.973065	228.290352	515.086462	-400.650701	298.337797	591.569323	-384.621912	400.706455	392.944224	-352.624029	-217.789111	832.348637	-213.618231	-103.959696	80.433176	-418.255254	-103.920779	80.396124	-18.302721	
1251	6.2550	443.379900	1249.574480	-124.320981	385.585437	1283.719634	-421.538745	377.593961	1318.674729	-266.026273	376.017202	1175.063281	-283.374386	423.962741	1022.354076	22.983904	590.578859	907.572713	-38.129137	414.483392	1021.691275	-515.961786	599.374778	907.947174	-436.654404	-117.290245	1093.161554	-193.308583	10.142208	1141.763804	-361.713320	80.113160	1103.446765	-80.899089	62.118123	1049.051067	-349.412738	82.452924	1029.687527	-91.596212	-70.862990	1149.243511	-136.227873	-83.511988	1165.600415	-243.412873	-25.344531	994.973093	-21.752233	-52.999065	998.447929	-397.187365	67.142147	874.799368	-8.302034	141.475444	829.634638	-27.803223	181.354827	754.811667	-39.077158	166.617611	856.822476	-34.016885	249.489711	670.203346	-60.906144	231.332244	669.361241	-177.962076	158.621567	602.437521	-28.723295	113.507094	527.463758	-45.323889	39.501880	483.450152	-46.616824	135.062026	511.408739	-73.193480	-40.314114	416.211511	-61.345262	-12.672371	410.635696	-140.603384	-92.554757	428.700765	-108.581326	85.610000	262.539684	-99.514803	3.606136	294.106329	-39.951893	61.743494	918.486221	-420.456664	146.861036	902.969482	-414.336019	161.992246	934.264582	-402.521492	214.570660	845.201176	-418.424833	315.936470	778.585985	-402.662496	337.097095	769.287195	-287.037519	202.958885	421.691317	-383.658640	221.976306	428.092402	-303.408065	150.460956	385.714111	-340.050451	322.084997	343.740018	-407.875400	257.759462	669.840580	-421.171575	267.553090	583.124758	-408.308613	229.596582	503.446658	-400.266438	297.797301	582.018670	-385.232488	402.165720	382.894994	-352.497252	-217.800021	832.340685	-213.722654	-103.957754	80.416924	-418.260429	-103.915154	80.389712	-18.318815	
1252	6.2600	441.729692	1250.719383	-122.422119	386.903561	1283.456971	-419.631215	377.320615	1318.869147	-264.616546	376.446136	1175.219711	-281.577190	423.539056	1022.474764	23.089601	590.318690	907.700111	-38.261891	415.449931	1021.950517	-515.973357	599.251766	907.788933	-436.962919	-117.602520	1091.752370	-192.796444	9.884196	1139.873913	-362.977348	79.623275	1103.350089	-81.609287	62.720006	1048.118437	-350.444189	82.369094	1029.627125	-92.695332	-71.182432	1148.206522	-136.584223	-83.986289	1163.831262	-244.001705	-23.332659	994.061420	-22.164024	-54.310755	994.481999	-396.669495	70.898576	875.914445	-8.688881	145.841485	831.823053	-28.791524	186.678691	757.650222	-40.581189	170.330321	859.474449	-35.935059	255.674666	674.241990	-63.037276	234.384526	673.451386	-179.662654	164.248912	608.623710	-29.938105	117.271035	534.745298	-46.376191	42.204561	492.440811	-47.081760	138.004065	518.387046	-74.703250	-39.544314	427.150395	-61.598604	-12.463093	422.011841	-140.667493	-91.763241	440.729752	-108.474190	84.255388	272.208792	-99.689503	2.634961	304.665399	-40.004951	60.070411	912.707106	-420.970776	144.869510	895.107412	-415.445770	160.755205	926.045706	-404.004691	210.970959	835.383179	-418.090012	310.985779	765.774004	-403.600962	330.835325	761.085911	-287.370141	203.492501	409.789277	-384.044285	222.709455	415.726076	-303.168575	151.368391	373.234042	-339.584914	323.284665	332.737041	-407.713044	254.914506	659.395636	-422.158828	266.509795	573.018402	-408.911946	229.825341	492.419158	-400.336651	296.665697	572.547195	-385.897311	403.163556	372.441050	-352.564726	-217.837204	832.369761	-213.932350	-103.982867	80.410214	-418.281556	-103.989246	80.445670	-18.406329	
1253	6.2650	439.982999	1252.073630	-120.130583	388.276394	1283.584150	-418.293482	376.877582	1319.301957	-263.368651	377.078319	1175.614408	-279.903163	423.101927	1022.485860	23.124958	590.161761	907.866958	-38.229802	416.433092	1022.123591	-515.920983	599.167678	907.656432	-437.198135	-118.019960	1090.259848	-192.588459	9.781420	1137.856879	-364.500448	78.949500	1103.170661	-82.434236	63.424034	1046.957533	-351.555705	82.508977	1029.364790	-93.882776	-72.770119	1146.977302	-136.812147	-84.417690	1161.943813	-244.751745	-21.223801	993.432100	-22.614169	-55.401063	990.173117	-396.387483	74.747923	877.083126	-9.031364	150.254946	834.163243	-29.963649	192.082297	760.603242	-42.116957	174.102223	862.203680	-37.857199	262.269077	679.055739	-65.083251	237.612714	677.417400	-181.378153	169.886308	615.068485	-31.100219	121.189082	542.226169	-47.313074	45.206719	501.756919	-47.405781	140.877762	525.621989	-76.119894	-38.071257	438.492934	-61.546141	-10.926441	432.453054	-141.095628	-90.153059	451.708513	-108.553057	83.450529	281.847250	-99.817981	2.337965	315.429644	-39.977594	58.204766	906.169272	-420.770484	142.773027	887.034565	-416.523092	159.509179	918.182843	-406.774179	207.468015	825.739752	-418.009378	306.426079	754.092502	-403.674733	324.895016	753.617319	-286.509127	203.296179	398.162248	-383.693585	222.669902	404.142965	-303.034090	151.841330	361.530088	-339.448320	323.885197	321.866840	-407.680709	252.400830	649.014142	-423.451079	264.906468	562.675138	-409.248560	229.066369	481.660642	-400.900419	294.802617	562.655581	-385.980215	403.581664	361.963388	-352.387191	-218.041774	832.704058	-214.206462	-103.977432	80.437514	-418.298086	-104.170062	80.360704	-18.526382	
